STARTFONT 2.1
FONT -FontForge-Pixellari-Medium-R-Normal--16-150-75-75-P-85-ISO10646-1
SIZE 15 75 75
FONTBOUNDINGBOX 16 16 -2 -4
COMMENT "Generated by fontforge, http://fontforge.sourceforge.net"
COMMENT "ZaccharyDempseyP"
STARTPROPERTIES 39
FOUNDRY "FontForge"
FAMILY_NAME "Pixellari"
WEIGHT_NAME "Medium"
SLANT "R"
SETWIDTH_NAME "Normal"
ADD_STYLE_NAME ""
PIXEL_SIZE 16
POINT_SIZE 150
RESOLUTION_X 75
RESOLUTION_Y 75
SPACING "P"
AVERAGE_WIDTH 85
CHARSET_REGISTRY "ISO10646"
CHARSET_ENCODING "1"
FONTNAME_REGISTRY ""
CHARSET_COLLECTIONS "ISO8859-2 ISO8859-9 ISO8859-4 ISO10646-1"
FONT_NAME "Pixellari"
FACE_NAME "Pixellari"
COPYRIGHT "ZaccharyDempseyP"
FONT_VERSION "001.000"
FONT_ASCENT 12
FONT_DESCENT 4
UNDERLINE_POSITION -2
UNDERLINE_THICKNESS 1
X_HEIGHT 7
CAP_HEIGHT 10
RAW_ASCENT 750
RAW_DESCENT 250
NORM_SPACE 5
RELATIVE_WEIGHT 50
RELATIVE_SETWIDTH 50
SUPERSCRIPT_X 0
SUPERSCRIPT_Y 7
SUPERSCRIPT_SIZE 11
SUBSCRIPT_X 0
SUBSCRIPT_Y 2
SUBSCRIPT_SIZE 11
AVG_LOWERCASE_WIDTH 78
AVG_UPPERCASE_WIDTH 99
ENDPROPERTIES
CHARS 322
STARTCHAR space
ENCODING 32
SWIDTH 312 0
DWIDTH 5 0
BBX 1 1 0 0
BITMAP
00
ENDCHAR
STARTCHAR exclam
ENCODING 33
SWIDTH 250 0
DWIDTH 4 0
BBX 2 11 1 0
BITMAP
C0
C0
C0
C0
C0
C0
C0
C0
00
C0
C0
ENDCHAR
STARTCHAR quotedbl
ENCODING 34
SWIDTH 437 0
DWIDTH 7 0
BBX 5 4 1 7
BITMAP
D8
D8
D8
D8
ENDCHAR
STARTCHAR numbersign
ENCODING 35
SWIDTH 562 0
DWIDTH 9 0
BBX 8 12 0 0
BITMAP
66
66
66
FF
FF
66
66
FF
FF
66
66
66
ENDCHAR
STARTCHAR dollar
ENCODING 36
SWIDTH 562 0
DWIDTH 9 0
BBX 6 12 2 -1
BITMAP
30
30
7C
FC
F0
F8
7C
3C
FC
F8
30
30
ENDCHAR
STARTCHAR percent
ENCODING 37
SWIDTH 875 0
DWIDTH 14 0
BBX 13 11 0 0
BITMAP
3060
78E0
CDC0
CD80
CF60
7FF0
3798
0D98
1D98
38F0
3060
ENDCHAR
STARTCHAR ampersand
ENCODING 38
SWIDTH 625 0
DWIDTH 10 0
BBX 8 12 1 0
BITMAP
3C
7E
E6
CE
EC
78
78
FE
CE
C6
FF
7F
ENDCHAR
STARTCHAR quotesingle
ENCODING 39
SWIDTH 250 0
DWIDTH 4 0
BBX 2 4 1 7
BITMAP
C0
C0
C0
C0
ENDCHAR
STARTCHAR parenleft
ENCODING 40
SWIDTH 312 0
DWIDTH 5 0
BBX 3 12 1 -1
BITMAP
60
60
C0
C0
C0
C0
C0
C0
C0
C0
60
60
ENDCHAR
STARTCHAR parenright
ENCODING 41
SWIDTH 375 0
DWIDTH 6 0
BBX 3 12 2 -1
BITMAP
C0
C0
60
60
60
60
60
60
60
60
C0
C0
ENDCHAR
STARTCHAR asterisk
ENCODING 42
SWIDTH 437 0
DWIDTH 7 0
BBX 6 6 0 6
BITMAP
30
FC
FC
78
FC
CC
ENDCHAR
STARTCHAR plus
ENCODING 43
SWIDTH 500 0
DWIDTH 8 0
BBX 6 6 1 2
BITMAP
30
30
FC
FC
30
30
ENDCHAR
STARTCHAR comma
ENCODING 44
SWIDTH 250 0
DWIDTH 4 0
BBX 2 4 1 -2
BITMAP
C0
C0
40
80
ENDCHAR
STARTCHAR hyphen
ENCODING 45
SWIDTH 500 0
DWIDTH 8 0
BBX 6 2 1 4
BITMAP
FC
FC
ENDCHAR
STARTCHAR period
ENCODING 46
SWIDTH 250 0
DWIDTH 4 0
BBX 2 2 1 0
BITMAP
C0
C0
ENDCHAR
STARTCHAR slash
ENCODING 47
SWIDTH 437 0
DWIDTH 7 0
BBX 6 12 0 0
BITMAP
0C
0C
1C
18
38
30
30
70
60
E0
C0
C0
ENDCHAR
STARTCHAR zero
ENCODING 48
SWIDTH 562 0
DWIDTH 9 0
BBX 7 11 1 0
BITMAP
7C
FE
DE
DE
DE
D6
F6
F6
F6
FE
7C
ENDCHAR
STARTCHAR one
ENCODING 49
SWIDTH 562 0
DWIDTH 9 0
BBX 6 11 2 0
BITMAP
30
70
F0
F0
30
30
30
30
30
FC
FC
ENDCHAR
STARTCHAR two
ENCODING 50
SWIDTH 500 0
DWIDTH 8 0
BBX 6 11 1 0
BITMAP
78
FC
CC
0C
0C
1C
38
70
F0
FC
FC
ENDCHAR
STARTCHAR three
ENCODING 51
SWIDTH 500 0
DWIDTH 8 0
BBX 6 11 1 0
BITMAP
78
FC
CC
0C
1C
18
1C
0C
CC
FC
78
ENDCHAR
STARTCHAR four
ENCODING 52
SWIDTH 562 0
DWIDTH 9 0
BBX 7 11 1 0
BITMAP
0C
1C
3C
7C
EC
CC
FE
FE
0C
0C
0C
ENDCHAR
STARTCHAR five
ENCODING 53
SWIDTH 500 0
DWIDTH 8 0
BBX 6 11 1 0
BITMAP
FC
FC
C0
C0
F8
FC
0C
0C
CC
FC
78
ENDCHAR
STARTCHAR six
ENCODING 54
SWIDTH 500 0
DWIDTH 8 0
BBX 6 11 1 0
BITMAP
78
FC
CC
C0
F8
FC
CC
CC
CC
FC
78
ENDCHAR
STARTCHAR seven
ENCODING 55
SWIDTH 562 0
DWIDTH 9 0
BBX 7 11 1 0
BITMAP
FE
FE
06
0E
1C
38
30
30
30
30
30
ENDCHAR
STARTCHAR eight
ENCODING 56
SWIDTH 500 0
DWIDTH 8 0
BBX 6 11 1 0
BITMAP
78
FC
CC
CC
78
FC
CC
CC
CC
FC
78
ENDCHAR
STARTCHAR nine
ENCODING 57
SWIDTH 500 0
DWIDTH 8 0
BBX 6 11 1 0
BITMAP
78
FC
CC
CC
FC
7C
0C
0C
CC
FC
78
ENDCHAR
STARTCHAR colon
ENCODING 58
SWIDTH 250 0
DWIDTH 4 0
BBX 2 8 1 0
BITMAP
C0
C0
00
00
00
00
C0
C0
ENDCHAR
STARTCHAR semicolon
ENCODING 59
SWIDTH 250 0
DWIDTH 4 0
BBX 2 10 1 -2
BITMAP
C0
C0
00
00
00
00
C0
C0
40
80
ENDCHAR
STARTCHAR less
ENCODING 60
SWIDTH 687 0
DWIDTH 11 0
BBX 10 8 0 1
BITMAP
03C0
0FC0
3F00
F800
F800
3F00
0FC0
03C0
ENDCHAR
STARTCHAR equal
ENCODING 61
SWIDTH 500 0
DWIDTH 8 0
BBX 6 6 1 2
BITMAP
FC
FC
00
00
FC
FC
ENDCHAR
STARTCHAR greater
ENCODING 62
SWIDTH 687 0
DWIDTH 11 0
BBX 10 8 0 1
BITMAP
F000
FC00
3F00
07C0
07C0
3F00
FC00
F000
ENDCHAR
STARTCHAR question
ENCODING 63
SWIDTH 500 0
DWIDTH 8 0
BBX 6 11 1 0
BITMAP
78
FC
CC
0C
1C
38
30
30
00
30
30
ENDCHAR
STARTCHAR at
ENCODING 64
SWIDTH 875 0
DWIDTH 14 0
BBX 12 14 1 -3
BITMAP
3FC0
7FE0
E070
CF30
DFB0
D9B0
D9B0
D9B0
D9B0
DFF0
CFE0
E000
7FE0
3FE0
ENDCHAR
STARTCHAR A
ENCODING 65
SWIDTH 625 0
DWIDTH 10 0
BBX 8 11 1 0
BITMAP
3C
7E
E7
C3
C3
FF
FF
C3
C3
C3
C3
ENDCHAR
STARTCHAR B
ENCODING 66
SWIDTH 625 0
DWIDTH 10 0
BBX 8 11 1 0
BITMAP
FE
FF
C3
C3
FF
FE
C3
C3
C3
FF
FE
ENDCHAR
STARTCHAR C
ENCODING 67
SWIDTH 625 0
DWIDTH 10 0
BBX 7 11 2 0
BITMAP
7C
FE
C6
C0
C0
C0
C0
C0
C6
FE
7C
ENDCHAR
STARTCHAR D
ENCODING 68
SWIDTH 687 0
DWIDTH 11 0
BBX 8 11 2 0
BITMAP
FE
FF
C3
C3
C3
C3
C3
C3
C3
FF
FE
ENDCHAR
STARTCHAR E
ENCODING 69
SWIDTH 562 0
DWIDTH 9 0
BBX 6 11 2 0
BITMAP
FC
FC
C0
C0
FC
FC
C0
C0
C0
FC
FC
ENDCHAR
STARTCHAR F
ENCODING 70
SWIDTH 562 0
DWIDTH 9 0
BBX 6 11 2 0
BITMAP
FC
FC
C0
C0
FC
FC
C0
C0
C0
C0
C0
ENDCHAR
STARTCHAR G
ENCODING 71
SWIDTH 625 0
DWIDTH 10 0
BBX 7 11 2 0
BITMAP
7C
FE
C6
C0
C0
CE
CE
C6
C6
FE
7C
ENDCHAR
STARTCHAR H
ENCODING 72
SWIDTH 625 0
DWIDTH 10 0
BBX 8 11 1 0
BITMAP
C3
C3
C3
C3
FF
FF
C3
C3
C3
C3
C3
ENDCHAR
STARTCHAR I
ENCODING 73
SWIDTH 375 0
DWIDTH 6 0
BBX 4 11 1 0
BITMAP
F0
F0
60
60
60
60
60
60
60
F0
F0
ENDCHAR
STARTCHAR J
ENCODING 74
SWIDTH 500 0
DWIDTH 8 0
BBX 7 11 0 0
BITMAP
1E
1E
0C
0C
0C
0C
0C
0C
CC
FC
78
ENDCHAR
STARTCHAR K
ENCODING 75
SWIDTH 625 0
DWIDTH 10 0
BBX 8 11 1 0
BITMAP
C3
C7
CE
DC
F8
F0
F8
DC
CE
C7
C3
ENDCHAR
STARTCHAR L
ENCODING 76
SWIDTH 500 0
DWIDTH 8 0
BBX 6 11 1 0
BITMAP
C0
C0
C0
C0
C0
C0
C0
C0
C0
FC
FC
ENDCHAR
STARTCHAR M
ENCODING 77
SWIDTH 750 0
DWIDTH 12 0
BBX 10 11 1 0
BITMAP
C0C0
E1C0
F3C0
FFC0
DEC0
CCC0
C0C0
C0C0
C0C0
C0C0
C0C0
ENDCHAR
STARTCHAR N
ENCODING 78
SWIDTH 687 0
DWIDTH 11 0
BBX 9 11 1 0
BITMAP
C180
E180
F180
F980
FD80
DD80
DF80
CF80
C780
C380
C180
ENDCHAR
STARTCHAR O
ENCODING 79
SWIDTH 687 0
DWIDTH 11 0
BBX 8 11 2 0
BITMAP
7E
FF
C3
C3
C3
C3
C3
C3
C3
FF
7E
ENDCHAR
STARTCHAR P
ENCODING 80
SWIDTH 562 0
DWIDTH 9 0
BBX 7 11 1 0
BITMAP
FC
FE
C6
C6
C6
FE
FC
C0
C0
C0
C0
ENDCHAR
STARTCHAR Q
ENCODING 81
SWIDTH 750 0
DWIDTH 12 0
BBX 9 11 2 0
BITMAP
7E00
FF00
C300
C300
C300
C300
C300
C300
C700
FF00
7F80
ENDCHAR
STARTCHAR R
ENCODING 82
SWIDTH 625 0
DWIDTH 10 0
BBX 8 11 1 0
BITMAP
FE
FF
C3
C3
FF
FE
C3
C3
C3
C3
C3
ENDCHAR
STARTCHAR S
ENCODING 83
SWIDTH 625 0
DWIDTH 10 0
BBX 8 11 1 0
BITMAP
7E
FF
C3
C0
FE
7F
03
03
C3
FF
7E
ENDCHAR
STARTCHAR T
ENCODING 84
SWIDTH 625 0
DWIDTH 10 0
BBX 8 11 1 0
BITMAP
FF
FF
18
18
18
18
18
18
18
18
18
ENDCHAR
STARTCHAR U
ENCODING 85
SWIDTH 687 0
DWIDTH 11 0
BBX 8 11 2 0
BITMAP
C3
C3
C3
C3
C3
C3
C3
C3
C3
FF
7E
ENDCHAR
STARTCHAR V
ENCODING 86
SWIDTH 687 0
DWIDTH 11 0
BBX 8 11 2 0
BITMAP
C3
C3
C3
C3
C3
C3
C3
E7
7E
3C
18
ENDCHAR
STARTCHAR W
ENCODING 87
SWIDTH 750 0
DWIDTH 12 0
BBX 10 11 1 0
BITMAP
C0C0
C0C0
C0C0
CCC0
CCC0
CCC0
CCC0
CCC0
FFC0
7F80
3300
ENDCHAR
STARTCHAR X
ENCODING 88
SWIDTH 625 0
DWIDTH 10 0
BBX 8 11 1 0
BITMAP
C3
E7
66
7E
3C
18
3C
7E
66
E7
C3
ENDCHAR
STARTCHAR Y
ENCODING 89
SWIDTH 625 0
DWIDTH 10 0
BBX 8 11 1 0
BITMAP
C3
E7
66
7E
3C
18
18
18
18
18
18
ENDCHAR
STARTCHAR Z
ENCODING 90
SWIDTH 687 0
DWIDTH 11 0
BBX 10 11 0 0
BITMAP
FFC0
FFC0
0380
0700
0E00
0C00
1C00
3800
7000
FFC0
FFC0
ENDCHAR
STARTCHAR bracketleft
ENCODING 91
SWIDTH 312 0
DWIDTH 5 0
BBX 3 12 1 -1
BITMAP
E0
E0
C0
C0
C0
C0
C0
C0
C0
C0
E0
E0
ENDCHAR
STARTCHAR backslash
ENCODING 92
SWIDTH 437 0
DWIDTH 7 0
BBX 6 12 0 0
BITMAP
C0
C0
E0
60
70
30
30
38
18
1C
0C
0C
ENDCHAR
STARTCHAR bracketright
ENCODING 93
SWIDTH 375 0
DWIDTH 6 0
BBX 3 12 2 -1
BITMAP
E0
E0
60
60
60
60
60
60
60
60
E0
E0
ENDCHAR
STARTCHAR asciicircum
ENCODING 94
SWIDTH 500 0
DWIDTH 8 0
BBX 7 5 0 5
BITMAP
10
38
7C
EE
C6
ENDCHAR
STARTCHAR underscore
ENCODING 95
SWIDTH 562 0
DWIDTH 9 0
BBX 8 2 0 -3
BITMAP
FF
FF
ENDCHAR
STARTCHAR grave
ENCODING 96
SWIDTH 312 0
DWIDTH 5 0
BBX 3 3 1 8
BITMAP
C0
E0
60
ENDCHAR
STARTCHAR a
ENCODING 97
SWIDTH 500 0
DWIDTH 8 0
BBX 6 8 1 0
BITMAP
78
FC
CC
CC
CC
CC
FC
7C
ENDCHAR
STARTCHAR b
ENCODING 98
SWIDTH 562 0
DWIDTH 9 0
BBX 7 11 1 0
BITMAP
C0
C0
C0
DC
FE
E6
C6
C6
E6
FE
DC
ENDCHAR
STARTCHAR c
ENCODING 99
SWIDTH 500 0
DWIDTH 8 0
BBX 6 8 1 0
BITMAP
78
FC
CC
C0
C0
CC
FC
78
ENDCHAR
STARTCHAR d
ENCODING 100
SWIDTH 562 0
DWIDTH 9 0
BBX 7 11 1 0
BITMAP
06
06
06
76
FE
CE
C6
C6
CE
FE
76
ENDCHAR
STARTCHAR e
ENCODING 101
SWIDTH 500 0
DWIDTH 8 0
BBX 6 8 1 0
BITMAP
78
FC
CC
FC
C0
CC
FC
78
ENDCHAR
STARTCHAR f
ENCODING 102
SWIDTH 375 0
DWIDTH 6 0
BBX 4 11 1 0
BITMAP
30
70
60
F0
F0
60
60
60
60
60
60
ENDCHAR
STARTCHAR g
ENCODING 103
SWIDTH 562 0
DWIDTH 9 0
BBX 7 11 1 -3
BITMAP
76
FE
CE
C6
C6
CE
FE
76
06
FE
FC
ENDCHAR
STARTCHAR h
ENCODING 104
SWIDTH 562 0
DWIDTH 9 0
BBX 7 11 1 0
BITMAP
C0
C0
C0
DC
FE
E6
C6
C6
C6
C6
C6
ENDCHAR
STARTCHAR i
ENCODING 105
SWIDTH 250 0
DWIDTH 4 0
BBX 2 11 1 0
BITMAP
C0
C0
00
C0
C0
C0
C0
C0
C0
C0
C0
ENDCHAR
STARTCHAR j
ENCODING 106
SWIDTH 250 0
DWIDTH 4 0
BBX 4 14 -1 -3
BITMAP
30
30
00
30
30
30
30
30
30
30
30
30
F0
E0
ENDCHAR
STARTCHAR k
ENCODING 107
SWIDTH 500 0
DWIDTH 8 0
BBX 7 11 0 0
BITMAP
C0
C0
C0
C6
CE
DC
F8
F8
DC
CE
C6
ENDCHAR
STARTCHAR l
ENCODING 108
SWIDTH 250 0
DWIDTH 4 0
BBX 2 11 1 0
BITMAP
C0
C0
C0
C0
C0
C0
C0
C0
C0
C0
C0
ENDCHAR
STARTCHAR m
ENCODING 109
SWIDTH 750 0
DWIDTH 12 0
BBX 10 8 1 0
BITMAP
FF80
FFC0
CCC0
CCC0
CCC0
CCC0
CCC0
CCC0
ENDCHAR
STARTCHAR n
ENCODING 110
SWIDTH 500 0
DWIDTH 8 0
BBX 6 8 1 0
BITMAP
F8
FC
CC
CC
CC
CC
CC
CC
ENDCHAR
STARTCHAR o
ENCODING 111
SWIDTH 500 0
DWIDTH 8 0
BBX 6 8 1 0
BITMAP
78
FC
CC
CC
CC
CC
FC
78
ENDCHAR
STARTCHAR p
ENCODING 112
SWIDTH 562 0
DWIDTH 9 0
BBX 7 11 1 -3
BITMAP
DC
FE
E6
C6
C6
E6
FE
DC
C0
C0
C0
ENDCHAR
STARTCHAR q
ENCODING 113
SWIDTH 562 0
DWIDTH 9 0
BBX 7 11 1 -3
BITMAP
76
FE
CE
C6
C6
CE
FE
76
06
06
06
ENDCHAR
STARTCHAR r
ENCODING 114
SWIDTH 500 0
DWIDTH 8 0
BBX 6 8 1 0
BITMAP
F8
FC
CC
C0
C0
C0
C0
C0
ENDCHAR
STARTCHAR s
ENCODING 115
SWIDTH 500 0
DWIDTH 8 0
BBX 6 8 1 0
BITMAP
7C
FC
C0
F8
7C
0C
FC
F8
ENDCHAR
STARTCHAR t
ENCODING 116
SWIDTH 312 0
DWIDTH 5 0
BBX 4 11 0 0
BITMAP
60
60
60
F0
F0
60
60
60
60
70
30
ENDCHAR
STARTCHAR u
ENCODING 117
SWIDTH 500 0
DWIDTH 8 0
BBX 6 8 1 0
BITMAP
CC
CC
CC
CC
CC
CC
FC
7C
ENDCHAR
STARTCHAR v
ENCODING 118
SWIDTH 500 0
DWIDTH 8 0
BBX 6 8 1 0
BITMAP
CC
CC
CC
CC
CC
FC
78
30
ENDCHAR
STARTCHAR w
ENCODING 119
SWIDTH 750 0
DWIDTH 12 0
BBX 10 8 1 0
BITMAP
CCC0
CCC0
CCC0
CCC0
CCC0
CCC0
FFC0
7FC0
ENDCHAR
STARTCHAR x
ENCODING 120
SWIDTH 500 0
DWIDTH 8 0
BBX 6 8 1 0
BITMAP
CC
FC
78
30
30
78
FC
CC
ENDCHAR
STARTCHAR y
ENCODING 121
SWIDTH 500 0
DWIDTH 8 0
BBX 6 11 1 -3
BITMAP
CC
CC
CC
CC
CC
CC
FC
78
38
F0
E0
ENDCHAR
STARTCHAR z
ENCODING 122
SWIDTH 500 0
DWIDTH 8 0
BBX 6 8 1 0
BITMAP
FC
FC
18
30
30
60
FC
FC
ENDCHAR
STARTCHAR braceleft
ENCODING 123
SWIDTH 375 0
DWIDTH 6 0
BBX 5 12 0 -1
BITMAP
38
38
60
60
60
C0
C0
60
60
60
38
38
ENDCHAR
STARTCHAR bar
ENCODING 124
SWIDTH 250 0
DWIDTH 4 0
BBX 2 13 1 -2
BITMAP
C0
C0
C0
C0
C0
C0
C0
C0
C0
C0
C0
C0
C0
ENDCHAR
STARTCHAR braceright
ENCODING 125
SWIDTH 375 0
DWIDTH 6 0
BBX 5 12 0 -1
BITMAP
E0
E0
30
30
30
18
18
30
30
30
E0
E0
ENDCHAR
STARTCHAR asciitilde
ENCODING 126
SWIDTH 625 0
DWIDTH 10 0
BBX 8 3 1 4
BITMAP
73
FF
CE
ENDCHAR
STARTCHAR uni00A0
ENCODING 160
SWIDTH 312 0
DWIDTH 5 0
BBX 1 1 0 0
BITMAP
00
ENDCHAR
STARTCHAR exclamdown
ENCODING 161
SWIDTH 250 0
DWIDTH 4 0
BBX 2 11 1 -3
BITMAP
C0
C0
00
C0
C0
C0
C0
C0
C0
C0
C0
ENDCHAR
STARTCHAR cent
ENCODING 162
SWIDTH 500 0
DWIDTH 8 0
BBX 6 12 1 -2
BITMAP
30
30
78
FC
FC
F0
F0
FC
FC
78
30
30
ENDCHAR
STARTCHAR sterling
ENCODING 163
SWIDTH 562 0
DWIDTH 9 0
BBX 8 12 0 0
BITMAP
3E
7F
E3
E0
60
FC
FC
60
60
7C
FF
E7
ENDCHAR
STARTCHAR currency
ENCODING 164
SWIDTH 625 0
DWIDTH 10 0
BBX 9 9 0 1
BITMAP
C180
FF80
7F00
6300
6300
6300
7F00
FF80
C180
ENDCHAR
STARTCHAR yen
ENCODING 165
SWIDTH 625 0
DWIDTH 10 0
BBX 8 11 1 0
BITMAP
C3
E7
66
7E
3E
FF
FF
18
FF
FF
18
ENDCHAR
STARTCHAR brokenbar
ENCODING 166
SWIDTH 250 0
DWIDTH 4 0
BBX 2 13 1 -2
BITMAP
C0
C0
C0
C0
C0
C0
00
00
C0
C0
C0
C0
C0
ENDCHAR
STARTCHAR section
ENCODING 167
SWIDTH 562 0
DWIDTH 9 0
BBX 7 16 1 -4
BITMAP
7C
FC
C0
E0
70
78
FC
CE
E6
7E
3C
1C
0E
06
7E
7C
ENDCHAR
STARTCHAR dieresis
ENCODING 168
SWIDTH 375 0
DWIDTH 6 0
BBX 5 2 0 10
BITMAP
D8
D8
ENDCHAR
STARTCHAR copyright
ENCODING 169
SWIDTH 750 0
DWIDTH 12 0
BBX 12 14 -1 -2
BITMAP
3FC0
7FE0
E070
CF30
DFB0
D9B0
D830
D830
D9B0
DFB0
CF30
E070
7FE0
3FC0
ENDCHAR
STARTCHAR ordfeminine
ENCODING 170
SWIDTH 437 0
DWIDTH 7 0
BBX 6 7 0 5
BITMAP
78
FC
CC
CC
CC
FC
7C
ENDCHAR
STARTCHAR guillemotleft
ENCODING 171
SWIDTH 562 0
DWIDTH 9 0
BBX 8 6 0 1
BITMAP
33
77
EE
EE
77
33
ENDCHAR
STARTCHAR logicalnot
ENCODING 172
SWIDTH 625 0
DWIDTH 10 0
BBX 8 4 1 4
BITMAP
FF
FF
03
03
ENDCHAR
STARTCHAR registered
ENCODING 174
SWIDTH 750 0
DWIDTH 12 0
BBX 12 14 -1 -2
BITMAP
3FC0
7FE0
E070
DF30
DFB0
D9B0
DFB0
DF30
D9B0
D9B0
D9B0
E070
7FE0
3FC0
ENDCHAR
STARTCHAR macron
ENCODING 175
SWIDTH 437 0
DWIDTH 7 0
BBX 4 1 2 10
BITMAP
F0
ENDCHAR
STARTCHAR degree
ENCODING 176
SWIDTH 437 0
DWIDTH 7 0
BBX 6 6 0 6
BITMAP
30
78
CC
CC
78
30
ENDCHAR
STARTCHAR plusminus
ENCODING 177
SWIDTH 500 0
DWIDTH 8 0
BBX 6 8 1 0
BITMAP
30
30
FC
FC
30
30
FC
FC
ENDCHAR
STARTCHAR uni00B2
ENCODING 178
SWIDTH 375 0
DWIDTH 6 0
BBX 5 7 0 5
BITMAP
70
F8
D8
38
70
F8
F8
ENDCHAR
STARTCHAR uni00B3
ENCODING 179
SWIDTH 375 0
DWIDTH 6 0
BBX 5 7 0 5
BITMAP
70
F8
D8
38
D8
F8
70
ENDCHAR
STARTCHAR acute
ENCODING 180
SWIDTH 312 0
DWIDTH 5 0
BBX 3 3 1 8
BITMAP
60
E0
C0
ENDCHAR
STARTCHAR uni00B5
ENCODING 181
SWIDTH 500 0
DWIDTH 8 0
BBX 6 11 1 -3
BITMAP
CC
CC
CC
CC
CC
CC
FC
FC
C0
C0
C0
ENDCHAR
STARTCHAR paragraph
ENCODING 182
SWIDTH 562 0
DWIDTH 9 0
BBX 7 13 1 -2
BITMAP
7E
FE
E6
E6
E6
FE
7E
36
36
36
36
36
36
ENDCHAR
STARTCHAR periodcentered
ENCODING 183
SWIDTH 250 0
DWIDTH 4 0
BBX 2 2 1 5
BITMAP
C0
C0
ENDCHAR
STARTCHAR cedilla
ENCODING 184
SWIDTH 312 0
DWIDTH 5 0
BBX 3 5 1 -4
BITMAP
60
E0
60
E0
C0
ENDCHAR
STARTCHAR uni00B9
ENCODING 185
SWIDTH 375 0
DWIDTH 6 0
BBX 4 6 1 6
BITMAP
60
E0
E0
60
F0
F0
ENDCHAR
STARTCHAR ordmasculine
ENCODING 186
SWIDTH 437 0
DWIDTH 7 0
BBX 6 7 0 5
BITMAP
30
78
CC
CC
CC
78
30
ENDCHAR
STARTCHAR guillemotright
ENCODING 187
SWIDTH 562 0
DWIDTH 9 0
BBX 8 6 0 1
BITMAP
CC
EE
77
77
EE
CC
ENDCHAR
STARTCHAR onequarter
ENCODING 188
SWIDTH 937 0
DWIDTH 15 0
BBX 13 12 1 0
BITMAP
6000
E0C0
E1C0
6380
F300
F600
0E30
0C70
18F0
39F8
71F8
6030
ENDCHAR
STARTCHAR onehalf
ENCODING 189
SWIDTH 875 0
DWIDTH 14 0
BBX 12 12 1 0
BITMAP
6000
E0C0
E1C0
6380
F300
F6E0
0FF0
0DB0
1870
38E0
71F0
61F0
ENDCHAR
STARTCHAR threequarters
ENCODING 190
SWIDTH 875 0
DWIDTH 14 0
BBX 13 12 0 0
BITMAP
7000
F860
D8E0
39C0
D980
FB00
7730
0670
0CF0
1DF8
39F8
3030
ENDCHAR
STARTCHAR questiondown
ENCODING 191
SWIDTH 500 0
DWIDTH 8 0
BBX 6 11 1 -3
BITMAP
30
30
00
30
30
70
E0
C0
CC
FC
78
ENDCHAR
STARTCHAR Agrave
ENCODING 192
SWIDTH 625 0
DWIDTH 10 0
BBX 8 12 1 0
BITMAP
10
08
3C
7E
E7
C3
FF
FF
C3
C3
C3
C3
ENDCHAR
STARTCHAR Aacute
ENCODING 193
SWIDTH 625 0
DWIDTH 10 0
BBX 8 12 1 0
BITMAP
08
10
3C
7E
E7
C3
FF
FF
C3
C3
C3
C3
ENDCHAR
STARTCHAR Acircumflex
ENCODING 194
SWIDTH 625 0
DWIDTH 10 0
BBX 8 12 1 0
BITMAP
18
24
3C
7E
E7
C3
FF
FF
C3
C3
C3
C3
ENDCHAR
STARTCHAR Atilde
ENCODING 195
SWIDTH 625 0
DWIDTH 10 0
BBX 8 12 1 0
BITMAP
14
28
3C
7E
E7
C3
FF
FF
C3
C3
C3
C3
ENDCHAR
STARTCHAR Adieresis
ENCODING 196
SWIDTH 625 0
DWIDTH 10 0
BBX 8 12 1 0
BITMAP
24
00
3C
7E
E7
C3
FF
FF
C3
C3
C3
C3
ENDCHAR
STARTCHAR Aring
ENCODING 197
SWIDTH 625 0
DWIDTH 10 0
BBX 8 12 1 0
BITMAP
3C
18
3C
7E
E7
C3
FF
FF
C3
C3
C3
C3
ENDCHAR
STARTCHAR AE
ENCODING 198
SWIDTH 875 0
DWIDTH 14 0
BBX 13 11 0 0
BITMAP
07F8
0FF8
0D80
1980
19F8
31F8
3F80
7F80
6180
C1F8
C1F8
ENDCHAR
STARTCHAR Ccedilla
ENCODING 199
SWIDTH 625 0
DWIDTH 10 0
BBX 7 15 2 -4
BITMAP
7C
FE
C6
C0
C0
C0
C0
C0
C6
FE
7C
38
18
38
30
ENDCHAR
STARTCHAR Egrave
ENCODING 200
SWIDTH 562 0
DWIDTH 9 0
BBX 6 12 2 0
BITMAP
20
10
FC
FC
C0
C0
FC
FC
C0
C0
FC
FC
ENDCHAR
STARTCHAR Eacute
ENCODING 201
SWIDTH 562 0
DWIDTH 9 0
BBX 6 12 2 0
BITMAP
10
20
FC
FC
C0
C0
FC
FC
C0
C0
FC
FC
ENDCHAR
STARTCHAR Ecircumflex
ENCODING 202
SWIDTH 562 0
DWIDTH 9 0
BBX 6 12 2 0
BITMAP
30
48
FC
FC
C0
C0
FC
FC
C0
C0
FC
FC
ENDCHAR
STARTCHAR Edieresis
ENCODING 203
SWIDTH 562 0
DWIDTH 9 0
BBX 6 12 2 0
BITMAP
48
00
FC
FC
C0
C0
FC
FC
C0
C0
FC
FC
ENDCHAR
STARTCHAR Igrave
ENCODING 204
SWIDTH 375 0
DWIDTH 6 0
BBX 4 12 1 0
BITMAP
40
20
F0
F0
60
60
60
60
60
60
F0
F0
ENDCHAR
STARTCHAR Iacute
ENCODING 205
SWIDTH 375 0
DWIDTH 6 0
BBX 4 12 1 0
BITMAP
20
40
F0
F0
60
60
60
60
60
60
F0
F0
ENDCHAR
STARTCHAR Icircumflex
ENCODING 206
SWIDTH 375 0
DWIDTH 6 0
BBX 4 12 1 0
BITMAP
60
90
F0
F0
60
60
60
60
60
60
F0
F0
ENDCHAR
STARTCHAR Idieresis
ENCODING 207
SWIDTH 375 0
DWIDTH 6 0
BBX 4 12 1 0
BITMAP
90
00
F0
F0
60
60
60
60
60
60
F0
F0
ENDCHAR
STARTCHAR Eth
ENCODING 208
SWIDTH 687 0
DWIDTH 11 0
BBX 10 11 0 0
BITMAP
3F80
3FC0
30C0
30C0
FCC0
FCC0
30C0
30C0
30C0
3FC0
3F80
ENDCHAR
STARTCHAR Ntilde
ENCODING 209
SWIDTH 687 0
DWIDTH 11 0
BBX 9 12 1 0
BITMAP
3200
4C00
C180
E180
F180
F980
FD80
DF80
CF80
C780
C380
C180
ENDCHAR
STARTCHAR Ograve
ENCODING 210
SWIDTH 687 0
DWIDTH 11 0
BBX 8 12 2 0
BITMAP
10
08
7E
FF
C3
C3
C3
C3
C3
C3
FF
7E
ENDCHAR
STARTCHAR Oacute
ENCODING 211
SWIDTH 687 0
DWIDTH 11 0
BBX 8 12 2 0
BITMAP
08
10
7E
FF
C3
C3
C3
C3
C3
C3
FF
7E
ENDCHAR
STARTCHAR Ocircumflex
ENCODING 212
SWIDTH 687 0
DWIDTH 11 0
BBX 8 12 2 0
BITMAP
18
24
7E
FF
C3
C3
C3
C3
C3
C3
FF
7E
ENDCHAR
STARTCHAR Otilde
ENCODING 213
SWIDTH 687 0
DWIDTH 11 0
BBX 8 12 2 0
BITMAP
14
28
7E
FF
C3
C3
C3
C3
C3
C3
FF
7E
ENDCHAR
STARTCHAR Odieresis
ENCODING 214
SWIDTH 687 0
DWIDTH 11 0
BBX 8 12 2 0
BITMAP
24
00
7E
FF
C3
C3
C3
C3
C3
C3
FF
7E
ENDCHAR
STARTCHAR multiply
ENCODING 215
SWIDTH 500 0
DWIDTH 8 0
BBX 6 6 1 2
BITMAP
CC
FC
78
78
FC
CC
ENDCHAR
STARTCHAR Oslash
ENCODING 216
SWIDTH 812 0
DWIDTH 13 0
BBX 14 14 -2 -2
BITMAP
1FEC
3FFC
7038
6078
60F8
61D8
6398
6718
6E18
7C18
7818
7038
FFF0
DFE0
ENDCHAR
STARTCHAR Ugrave
ENCODING 217
SWIDTH 687 0
DWIDTH 11 0
BBX 8 12 2 0
BITMAP
10
08
C3
C3
C3
C3
C3
C3
C3
C3
FF
7E
ENDCHAR
STARTCHAR Uacute
ENCODING 218
SWIDTH 687 0
DWIDTH 11 0
BBX 8 12 2 0
BITMAP
08
10
C3
C3
C3
C3
C3
C3
C3
C3
FF
7E
ENDCHAR
STARTCHAR Ucircumflex
ENCODING 219
SWIDTH 687 0
DWIDTH 11 0
BBX 8 12 2 0
BITMAP
18
24
C3
C3
C3
C3
C3
C3
C3
C3
FF
7E
ENDCHAR
STARTCHAR Udieresis
ENCODING 220
SWIDTH 687 0
DWIDTH 11 0
BBX 8 12 2 0
BITMAP
24
00
C3
C3
C3
C3
C3
C3
C3
C3
FF
7E
ENDCHAR
STARTCHAR Yacute
ENCODING 221
SWIDTH 625 0
DWIDTH 10 0
BBX 8 12 1 0
BITMAP
08
10
C3
E7
66
7E
3C
18
18
18
18
18
ENDCHAR
STARTCHAR Thorn
ENCODING 222
SWIDTH 625 0
DWIDTH 10 0
BBX 8 11 1 0
BITMAP
C0
C0
FC
FE
C7
C3
C7
FE
FC
C0
C0
ENDCHAR
STARTCHAR germandbls
ENCODING 223
SWIDTH 625 0
DWIDTH 10 0
BBX 8 11 1 0
BITMAP
7C
FE
C6
C6
CE
CC
CE
C7
F3
FF
DE
ENDCHAR
STARTCHAR agrave
ENCODING 224
SWIDTH 500 0
DWIDTH 8 0
BBX 6 11 1 0
BITMAP
20
10
00
78
FC
CC
CC
CC
CC
FC
7C
ENDCHAR
STARTCHAR aacute
ENCODING 225
SWIDTH 500 0
DWIDTH 8 0
BBX 6 11 1 0
BITMAP
10
20
00
78
FC
CC
CC
CC
CC
FC
7C
ENDCHAR
STARTCHAR acircumflex
ENCODING 226
SWIDTH 500 0
DWIDTH 8 0
BBX 6 11 1 0
BITMAP
30
48
00
78
FC
CC
CC
CC
CC
FC
7C
ENDCHAR
STARTCHAR atilde
ENCODING 227
SWIDTH 500 0
DWIDTH 8 0
BBX 6 11 1 0
BITMAP
28
50
00
78
FC
CC
CC
CC
CC
FC
7C
ENDCHAR
STARTCHAR adieresis
ENCODING 228
SWIDTH 500 0
DWIDTH 8 0
BBX 6 10 1 0
BITMAP
48
00
78
FC
CC
CC
CC
CC
FC
7C
ENDCHAR
STARTCHAR aring
ENCODING 229
SWIDTH 500 0
DWIDTH 8 0
BBX 6 12 1 0
BITMAP
30
48
30
00
78
FC
CC
CC
CC
CC
FC
7C
ENDCHAR
STARTCHAR ae
ENCODING 230
SWIDTH 812 0
DWIDTH 13 0
BBX 11 8 1 0
BITMAP
79C0
FFE0
CE60
CFE0
CE00
CE60
FFE0
7FC0
ENDCHAR
STARTCHAR ccedilla
ENCODING 231
SWIDTH 500 0
DWIDTH 8 0
BBX 6 12 1 -4
BITMAP
78
FC
CC
C0
C0
CC
FC
78
38
18
38
30
ENDCHAR
STARTCHAR egrave
ENCODING 232
SWIDTH 500 0
DWIDTH 8 0
BBX 6 11 1 0
BITMAP
20
10
00
78
FC
CC
FC
C0
CC
FC
78
ENDCHAR
STARTCHAR eacute
ENCODING 233
SWIDTH 500 0
DWIDTH 8 0
BBX 6 11 1 0
BITMAP
10
20
00
78
FC
CC
FC
C0
CC
FC
78
ENDCHAR
STARTCHAR ecircumflex
ENCODING 234
SWIDTH 500 0
DWIDTH 8 0
BBX 6 11 1 0
BITMAP
30
48
00
78
FC
CC
FC
C0
CC
FC
78
ENDCHAR
STARTCHAR edieresis
ENCODING 235
SWIDTH 500 0
DWIDTH 8 0
BBX 6 10 1 0
BITMAP
48
00
78
FC
CC
FC
C0
CC
FC
78
ENDCHAR
STARTCHAR igrave
ENCODING 236
SWIDTH 250 0
DWIDTH 4 0
BBX 2 11 1 0
BITMAP
80
40
00
C0
C0
C0
C0
C0
C0
C0
C0
ENDCHAR
STARTCHAR iacute
ENCODING 237
SWIDTH 250 0
DWIDTH 4 0
BBX 2 11 1 0
BITMAP
40
80
00
C0
C0
C0
C0
C0
C0
C0
C0
ENDCHAR
STARTCHAR icircumflex
ENCODING 238
SWIDTH 312 0
DWIDTH 5 0
BBX 4 11 0 0
BITMAP
60
90
00
60
60
60
60
60
60
60
60
ENDCHAR
STARTCHAR idieresis
ENCODING 239
SWIDTH 312 0
DWIDTH 5 0
BBX 4 10 0 0
BITMAP
90
00
60
60
60
60
60
60
60
60
ENDCHAR
STARTCHAR eth
ENCODING 240
SWIDTH 562 0
DWIDTH 9 0
BBX 7 12 1 0
BITMAP
36
7E
FC
CC
7C
FC
CC
CC
CC
CC
FC
78
ENDCHAR
STARTCHAR ntilde
ENCODING 241
SWIDTH 500 0
DWIDTH 8 0
BBX 6 11 1 0
BITMAP
28
50
00
F8
FC
CC
CC
CC
CC
CC
CC
ENDCHAR
STARTCHAR ograve
ENCODING 242
SWIDTH 500 0
DWIDTH 8 0
BBX 6 11 1 0
BITMAP
20
10
00
78
FC
CC
CC
CC
CC
FC
78
ENDCHAR
STARTCHAR oacute
ENCODING 243
SWIDTH 500 0
DWIDTH 8 0
BBX 6 11 1 0
BITMAP
10
20
00
78
FC
CC
CC
CC
CC
FC
78
ENDCHAR
STARTCHAR ocircumflex
ENCODING 244
SWIDTH 500 0
DWIDTH 8 0
BBX 6 11 1 0
BITMAP
30
48
00
78
FC
CC
CC
CC
CC
FC
78
ENDCHAR
STARTCHAR otilde
ENCODING 245
SWIDTH 500 0
DWIDTH 8 0
BBX 6 11 1 0
BITMAP
28
50
00
78
FC
CC
CC
CC
CC
FC
78
ENDCHAR
STARTCHAR odieresis
ENCODING 246
SWIDTH 500 0
DWIDTH 8 0
BBX 6 10 1 0
BITMAP
48
00
78
FC
CC
CC
CC
CC
FC
78
ENDCHAR
STARTCHAR divide
ENCODING 247
SWIDTH 500 0
DWIDTH 8 0
BBX 6 6 1 2
BITMAP
30
00
FC
FC
00
30
ENDCHAR
STARTCHAR oslash
ENCODING 248
SWIDTH 687 0
DWIDTH 11 0
BBX 10 10 0 -1
BITMAP
00C0
1FC0
3F80
6780
6F80
7D80
7980
7F00
FE00
C000
ENDCHAR
STARTCHAR ugrave
ENCODING 249
SWIDTH 500 0
DWIDTH 8 0
BBX 6 11 1 0
BITMAP
20
10
00
CC
CC
CC
CC
CC
CC
FC
7C
ENDCHAR
STARTCHAR uacute
ENCODING 250
SWIDTH 500 0
DWIDTH 8 0
BBX 6 11 1 0
BITMAP
10
20
00
CC
CC
CC
CC
CC
CC
FC
7C
ENDCHAR
STARTCHAR ucircumflex
ENCODING 251
SWIDTH 500 0
DWIDTH 8 0
BBX 6 11 1 0
BITMAP
30
48
00
CC
CC
CC
CC
CC
CC
FC
7C
ENDCHAR
STARTCHAR udieresis
ENCODING 252
SWIDTH 500 0
DWIDTH 8 0
BBX 6 10 1 0
BITMAP
48
00
CC
CC
CC
CC
CC
CC
FC
7C
ENDCHAR
STARTCHAR yacute
ENCODING 253
SWIDTH 500 0
DWIDTH 8 0
BBX 6 14 1 -3
BITMAP
10
20
00
CC
CC
CC
CC
CC
CC
FC
78
38
F0
E0
ENDCHAR
STARTCHAR thorn
ENCODING 254
SWIDTH 625 0
DWIDTH 10 0
BBX 8 14 1 -3
BITMAP
C0
C0
C0
C0
C0
FC
FE
C7
C3
C7
FE
FC
C0
C0
ENDCHAR
STARTCHAR ydieresis
ENCODING 255
SWIDTH 500 0
DWIDTH 8 0
BBX 6 13 1 -3
BITMAP
48
00
CC
CC
CC
CC
CC
CC
FC
78
38
F0
E0
ENDCHAR
STARTCHAR Amacron
ENCODING 256
SWIDTH 625 0
DWIDTH 10 0
BBX 8 12 1 0
BITMAP
3C
00
3C
7E
E7
C3
FF
FF
C3
C3
C3
C3
ENDCHAR
STARTCHAR amacron
ENCODING 257
SWIDTH 500 0
DWIDTH 8 0
BBX 6 10 1 0
BITMAP
78
00
78
FC
CC
CC
CC
CC
FC
7C
ENDCHAR
STARTCHAR Abreve
ENCODING 258
SWIDTH 625 0
DWIDTH 10 0
BBX 8 12 1 0
BITMAP
24
18
3C
7E
E7
C3
FF
FF
C3
C3
C3
C3
ENDCHAR
STARTCHAR abreve
ENCODING 259
SWIDTH 500 0
DWIDTH 8 0
BBX 6 11 1 0
BITMAP
48
30
00
78
FC
CC
CC
CC
CC
FC
7C
ENDCHAR
STARTCHAR Aogonek
ENCODING 260
SWIDTH 625 0
DWIDTH 10 0
BBX 8 15 1 -4
BITMAP
3C
7E
E7
C3
C3
FF
FF
C3
C3
C3
C3
07
03
07
06
ENDCHAR
STARTCHAR aogonek
ENCODING 261
SWIDTH 500 0
DWIDTH 8 0
BBX 6 12 1 -4
BITMAP
78
FC
CC
CC
CC
CC
FC
7C
1C
0C
1C
18
ENDCHAR
STARTCHAR Cacute
ENCODING 262
SWIDTH 625 0
DWIDTH 10 0
BBX 7 12 2 0
BITMAP
10
20
7C
FE
C6
C0
C0
C0
C0
C6
FE
7C
ENDCHAR
STARTCHAR cacute
ENCODING 263
SWIDTH 500 0
DWIDTH 8 0
BBX 6 11 1 0
BITMAP
10
20
00
78
FC
CC
C0
C0
CC
FC
78
ENDCHAR
STARTCHAR Ccircumflex
ENCODING 264
SWIDTH 625 0
DWIDTH 10 0
BBX 7 12 2 0
BITMAP
30
48
7C
FE
C6
C0
C0
C0
C0
C6
FE
7C
ENDCHAR
STARTCHAR ccircumflex
ENCODING 265
SWIDTH 500 0
DWIDTH 8 0
BBX 6 11 1 0
BITMAP
30
48
00
78
FC
CC
C0
C0
CC
FC
78
ENDCHAR
STARTCHAR Cdotaccent
ENCODING 266
SWIDTH 625 0
DWIDTH 10 0
BBX 7 12 2 0
BITMAP
20
10
7C
FE
C6
C0
C0
C0
C0
C6
FE
7C
ENDCHAR
STARTCHAR cdotaccent
ENCODING 267
SWIDTH 500 0
DWIDTH 8 0
BBX 6 11 1 0
BITMAP
20
10
00
78
FC
CC
C0
C0
CC
FC
78
ENDCHAR
STARTCHAR Ccaron
ENCODING 268
SWIDTH 625 0
DWIDTH 10 0
BBX 7 12 2 0
BITMAP
48
30
7C
FE
C6
C0
C0
C0
C0
C6
FE
7C
ENDCHAR
STARTCHAR ccaron
ENCODING 269
SWIDTH 500 0
DWIDTH 8 0
BBX 6 11 1 0
BITMAP
48
30
00
78
FC
CC
C0
C0
CC
FC
78
ENDCHAR
STARTCHAR Dcaron
ENCODING 270
SWIDTH 687 0
DWIDTH 11 0
BBX 8 12 2 0
BITMAP
48
30
FE
FF
C3
C3
C3
C3
C3
C3
FF
FE
ENDCHAR
STARTCHAR dcaron
ENCODING 271
SWIDTH 750 0
DWIDTH 12 0
BBX 10 11 1 0
BITMAP
06C0
06C0
0680
7600
FE00
CE00
C600
C600
CE00
FE00
7600
ENDCHAR
STARTCHAR Dcroat
ENCODING 272
SWIDTH 687 0
DWIDTH 11 0
BBX 10 11 0 0
BITMAP
3F80
3FC0
30C0
30C0
FCC0
FCC0
30C0
30C0
30C0
3FC0
3F80
ENDCHAR
STARTCHAR dcroat
ENCODING 273
SWIDTH 625 0
DWIDTH 10 0
BBX 8 11 1 0
BITMAP
06
0F
0F
76
FE
CE
C6
C6
CE
FE
76
ENDCHAR
STARTCHAR Emacron
ENCODING 274
SWIDTH 562 0
DWIDTH 9 0
BBX 6 12 2 0
BITMAP
78
00
FC
FC
C0
C0
FC
FC
C0
C0
FC
FC
ENDCHAR
STARTCHAR emacron
ENCODING 275
SWIDTH 500 0
DWIDTH 8 0
BBX 6 10 1 0
BITMAP
78
00
78
FC
CC
FC
C0
CC
FC
78
ENDCHAR
STARTCHAR Ebreve
ENCODING 276
SWIDTH 562 0
DWIDTH 9 0
BBX 6 12 2 0
BITMAP
48
30
FC
FC
C0
C0
FC
FC
C0
C0
FC
FC
ENDCHAR
STARTCHAR ebreve
ENCODING 277
SWIDTH 500 0
DWIDTH 8 0
BBX 6 11 1 0
BITMAP
48
30
00
78
FC
CC
FC
C0
CC
FC
78
ENDCHAR
STARTCHAR Edotaccent
ENCODING 278
SWIDTH 562 0
DWIDTH 9 0
BBX 6 12 2 0
BITMAP
10
20
FC
FC
C0
C0
FC
FC
C0
C0
FC
FC
ENDCHAR
STARTCHAR edotaccent
ENCODING 279
SWIDTH 500 0
DWIDTH 8 0
BBX 6 11 1 0
BITMAP
10
20
00
78
FC
CC
FC
C0
CC
FC
78
ENDCHAR
STARTCHAR Eogonek
ENCODING 280
SWIDTH 562 0
DWIDTH 9 0
BBX 6 14 2 -4
BITMAP
FC
FC
C0
C0
FC
FC
C0
C0
FC
FC
1C
0C
1C
18
ENDCHAR
STARTCHAR eogonek
ENCODING 281
SWIDTH 500 0
DWIDTH 8 0
BBX 6 12 1 -4
BITMAP
78
FC
CC
FC
C0
CC
FC
78
38
18
38
30
ENDCHAR
STARTCHAR Ecaron
ENCODING 282
SWIDTH 562 0
DWIDTH 9 0
BBX 6 12 2 0
BITMAP
48
30
FC
FC
C0
C0
FC
FC
C0
C0
FC
FC
ENDCHAR
STARTCHAR ecaron
ENCODING 283
SWIDTH 500 0
DWIDTH 8 0
BBX 6 11 1 0
BITMAP
48
30
00
78
FC
CC
FC
C0
CC
FC
78
ENDCHAR
STARTCHAR Gcircumflex
ENCODING 284
SWIDTH 625 0
DWIDTH 10 0
BBX 7 12 2 0
BITMAP
30
48
7C
FE
C6
C0
CE
CE
C6
C6
FE
7C
ENDCHAR
STARTCHAR gcircumflex
ENCODING 285
SWIDTH 562 0
DWIDTH 9 0
BBX 7 14 1 -3
BITMAP
30
48
00
76
FE
CE
C6
C6
CE
FE
76
06
FE
FC
ENDCHAR
STARTCHAR Gbreve
ENCODING 286
SWIDTH 625 0
DWIDTH 10 0
BBX 7 12 2 0
BITMAP
48
30
7C
FE
C6
C0
CE
CE
C6
C6
FE
7C
ENDCHAR
STARTCHAR gbreve
ENCODING 287
SWIDTH 562 0
DWIDTH 9 0
BBX 7 14 1 -3
BITMAP
48
30
00
76
FE
CE
C6
C6
CE
FE
76
06
FE
FC
ENDCHAR
STARTCHAR Gdotaccent
ENCODING 288
SWIDTH 625 0
DWIDTH 10 0
BBX 7 12 2 0
BITMAP
10
20
7C
FE
C6
C0
CE
CE
C6
C6
FE
7C
ENDCHAR
STARTCHAR gdotaccent
ENCODING 289
SWIDTH 562 0
DWIDTH 9 0
BBX 7 14 1 -3
BITMAP
10
20
00
76
FE
CE
C6
C6
CE
FE
76
06
FE
FC
ENDCHAR
STARTCHAR Gcommaaccent
ENCODING 290
SWIDTH 625 0
DWIDTH 10 0
BBX 7 14 2 -4
BITMAP
7C
FE
C6
C0
CE
CE
C6
C6
FE
7C
1C
0C
1C
18
ENDCHAR
STARTCHAR gcommaaccent
ENCODING 291
SWIDTH 562 0
DWIDTH 9 0
BBX 7 15 1 -3
BITMAP
10
30
20
00
76
FE
CE
C6
C6
CE
FE
76
06
FE
FC
ENDCHAR
STARTCHAR Hcircumflex
ENCODING 292
SWIDTH 625 0
DWIDTH 10 0
BBX 8 12 1 0
BITMAP
18
24
C3
C3
C3
C3
FF
FF
C3
C3
C3
C3
ENDCHAR
STARTCHAR hcircumflex
ENCODING 293
SWIDTH 562 0
DWIDTH 9 0
BBX 7 12 1 0
BITMAP
18
E4
C0
C0
DC
FE
E6
C6
C6
C6
C6
C6
ENDCHAR
STARTCHAR Hbar
ENCODING 294
SWIDTH 750 0
DWIDTH 12 0
BBX 12 11 -1 0
BITMAP
30C0
FFF0
FFF0
30C0
3FC0
3FC0
30C0
30C0
30C0
30C0
30C0
ENDCHAR
STARTCHAR hbar
ENCODING 295
SWIDTH 562 0
DWIDTH 9 0
BBX 8 11 0 0
BITMAP
60
F0
F0
6E
7F
73
63
63
63
63
63
ENDCHAR
STARTCHAR Itilde
ENCODING 296
SWIDTH 375 0
DWIDTH 6 0
BBX 4 12 1 0
BITMAP
50
A0
F0
F0
60
60
60
60
60
60
F0
F0
ENDCHAR
STARTCHAR itilde
ENCODING 297
SWIDTH 437 0
DWIDTH 7 0
BBX 7 12 -1 0
BITMAP
76
FE
DC
00
30
30
30
30
30
30
30
30
ENDCHAR
STARTCHAR Imacron
ENCODING 298
SWIDTH 375 0
DWIDTH 6 0
BBX 4 12 1 0
BITMAP
F0
00
F0
F0
60
60
60
60
60
60
F0
F0
ENDCHAR
STARTCHAR imacron
ENCODING 299
SWIDTH 375 0
DWIDTH 6 0
BBX 6 11 -1 0
BITMAP
FC
FC
00
30
30
30
30
30
30
30
30
ENDCHAR
STARTCHAR Ibreve
ENCODING 300
SWIDTH 375 0
DWIDTH 6 0
BBX 4 12 1 0
BITMAP
90
60
F0
F0
60
60
60
60
60
60
F0
F0
ENDCHAR
STARTCHAR ibreve
ENCODING 301
SWIDTH 312 0
DWIDTH 5 0
BBX 4 11 0 0
BITMAP
90
60
00
60
60
60
60
60
60
60
60
ENDCHAR
STARTCHAR Iogonek
ENCODING 302
SWIDTH 375 0
DWIDTH 6 0
BBX 4 15 1 -4
BITMAP
F0
F0
60
60
60
60
60
60
60
F0
F0
70
30
70
60
ENDCHAR
STARTCHAR iogonek
ENCODING 303
SWIDTH 250 0
DWIDTH 4 0
BBX 3 15 0 -4
BITMAP
60
60
00
60
60
60
60
60
60
60
60
E0
60
E0
C0
ENDCHAR
STARTCHAR Idotaccent
ENCODING 304
SWIDTH 375 0
DWIDTH 6 0
BBX 4 12 1 0
BITMAP
20
40
F0
F0
60
60
60
60
60
60
F0
F0
ENDCHAR
STARTCHAR dotlessi
ENCODING 305
SWIDTH 250 0
DWIDTH 4 0
BBX 2 8 1 0
BITMAP
C0
C0
C0
C0
C0
C0
C0
C0
ENDCHAR
STARTCHAR IJ
ENCODING 306
SWIDTH 812 0
DWIDTH 13 0
BBX 11 11 1 0
BITMAP
F1E0
F1E0
60C0
60C0
60C0
60C0
60C0
60C0
6CC0
FFC0
F780
ENDCHAR
STARTCHAR ij
ENCODING 307
SWIDTH 500 0
DWIDTH 8 0
BBX 6 14 1 -3
BITMAP
CC
CC
00
CC
CC
CC
CC
CC
CC
CC
CC
0C
3C
38
ENDCHAR
STARTCHAR Jcircumflex
ENCODING 308
SWIDTH 500 0
DWIDTH 8 0
BBX 7 12 0 0
BITMAP
0C
12
1E
1E
0C
0C
0C
0C
0C
CC
FC
78
ENDCHAR
STARTCHAR jcircumflex
ENCODING 309
SWIDTH 312 0
DWIDTH 5 0
BBX 5 14 -1 -3
BITMAP
30
48
00
30
30
30
30
30
30
30
30
30
F0
E0
ENDCHAR
STARTCHAR Kcommaaccent
ENCODING 310
SWIDTH 625 0
DWIDTH 10 0
BBX 8 15 1 -4
BITMAP
C3
C7
CE
DC
F8
F0
F8
DC
CE
C7
C3
18
18
08
10
ENDCHAR
STARTCHAR kcommaaccent
ENCODING 311
SWIDTH 500 0
DWIDTH 8 0
BBX 7 15 0 -4
BITMAP
C0
C0
C0
C6
CE
DC
F8
F8
DC
CE
C6
18
18
08
10
ENDCHAR
STARTCHAR kgreenlandic
ENCODING 312
SWIDTH 500 0
DWIDTH 8 0
BBX 7 8 0 0
BITMAP
C6
CE
DC
F8
F8
DC
CE
C6
ENDCHAR
STARTCHAR Lacute
ENCODING 313
SWIDTH 500 0
DWIDTH 8 0
BBX 6 12 1 0
BITMAP
10
20
C0
C0
C0
C0
C0
C0
C0
C0
FC
FC
ENDCHAR
STARTCHAR lacute
ENCODING 314
SWIDTH 250 0
DWIDTH 4 0
BBX 2 12 1 0
BITMAP
40
80
C0
C0
C0
C0
C0
C0
C0
C0
C0
C0
ENDCHAR
STARTCHAR Lcommaaccent
ENCODING 315
SWIDTH 500 0
DWIDTH 8 0
BBX 6 15 1 -4
BITMAP
C0
C0
C0
C0
C0
C0
C0
C0
C0
FC
FC
30
30
10
20
ENDCHAR
STARTCHAR lcommaaccent
ENCODING 316
SWIDTH 250 0
DWIDTH 4 0
BBX 2 15 1 -4
BITMAP
C0
C0
C0
C0
C0
C0
C0
C0
C0
C0
00
C0
C0
40
80
ENDCHAR
STARTCHAR Lcaron
ENCODING 317
SWIDTH 500 0
DWIDTH 8 0
BBX 6 11 1 0
BITMAP
CC
CC
C4
C8
C0
C0
C0
C0
C0
FC
FC
ENDCHAR
STARTCHAR lcaron
ENCODING 318
SWIDTH 437 0
DWIDTH 7 0
BBX 5 12 1 0
BITMAP
18
D8
C8
D0
C0
C0
C0
C0
C0
C0
C0
C0
ENDCHAR
STARTCHAR Ldot
ENCODING 319
SWIDTH 500 0
DWIDTH 8 0
BBX 6 11 1 0
BITMAP
C0
C0
C0
C0
D8
D8
C8
C0
C0
FC
FC
ENDCHAR
STARTCHAR ldot
ENCODING 320
SWIDTH 437 0
DWIDTH 7 0
BBX 5 11 1 0
BITMAP
C0
C0
C0
C0
D8
D8
C0
C0
C0
C0
C0
ENDCHAR
STARTCHAR Lslash
ENCODING 321
SWIDTH 500 0
DWIDTH 8 0
BBX 8 11 -1 0
BITMAP
30
36
3E
3C
38
70
F0
F0
30
3F
3F
ENDCHAR
STARTCHAR lslash
ENCODING 322
SWIDTH 375 0
DWIDTH 6 0
BBX 6 11 -1 0
BITMAP
30
30
3C
3C
38
70
F0
F0
30
30
30
ENDCHAR
STARTCHAR Nacute
ENCODING 323
SWIDTH 687 0
DWIDTH 11 0
BBX 9 12 1 0
BITMAP
0400
C980
E180
F180
F980
FD80
DD80
DF80
CF80
C780
C380
C180
ENDCHAR
STARTCHAR nacute
ENCODING 324
SWIDTH 500 0
DWIDTH 8 0
BBX 6 11 1 0
BITMAP
10
20
00
F8
FC
CC
CC
CC
CC
CC
CC
ENDCHAR
STARTCHAR Ncommaaccent
ENCODING 325
SWIDTH 687 0
DWIDTH 11 0
BBX 9 15 1 -4
BITMAP
C180
E180
F180
F980
FD80
DD80
DF80
CF80
C780
C380
C180
0C00
0C00
0400
0800
ENDCHAR
STARTCHAR ncommaaccent
ENCODING 326
SWIDTH 500 0
DWIDTH 8 0
BBX 6 12 1 -4
BITMAP
F8
FC
CC
CC
CC
CC
CC
CC
30
30
10
20
ENDCHAR
STARTCHAR Ncaron
ENCODING 327
SWIDTH 687 0
DWIDTH 11 0
BBX 9 12 1 0
BITMAP
1200
CD80
E180
F180
F980
FD80
DD80
DF80
CF80
C780
C380
C180
ENDCHAR
STARTCHAR ncaron
ENCODING 328
SWIDTH 500 0
DWIDTH 8 0
BBX 6 11 1 0
BITMAP
48
30
00
F8
FC
CC
CC
CC
CC
CC
CC
ENDCHAR
STARTCHAR napostrophe
ENCODING 329
SWIDTH 500 0
DWIDTH 8 0
BBX 8 12 -1 0
BITMAP
C0
C0
40
80
3E
3F
33
33
33
33
33
33
ENDCHAR
STARTCHAR Eng
ENCODING 330
SWIDTH 687 0
DWIDTH 11 0
BBX 9 13 1 -2
BITMAP
C180
E180
F180
F980
FD80
DD80
DF80
CF80
C780
C380
C180
0780
0700
ENDCHAR
STARTCHAR eng
ENCODING 331
SWIDTH 500 0
DWIDTH 8 0
BBX 6 11 1 -3
BITMAP
F8
FC
CC
CC
CC
CC
CC
CC
0C
3C
38
ENDCHAR
STARTCHAR Omacron
ENCODING 332
SWIDTH 687 0
DWIDTH 11 0
BBX 8 12 2 0
BITMAP
3C
00
7E
FF
C3
C3
C3
C3
C3
C3
FF
7E
ENDCHAR
STARTCHAR omacron
ENCODING 333
SWIDTH 500 0
DWIDTH 8 0
BBX 6 10 1 0
BITMAP
78
00
78
FC
CC
CC
CC
CC
FC
78
ENDCHAR
STARTCHAR Obreve
ENCODING 334
SWIDTH 687 0
DWIDTH 11 0
BBX 8 12 2 0
BITMAP
24
18
7E
FF
C3
C3
C3
C3
C3
C3
FF
7E
ENDCHAR
STARTCHAR obreve
ENCODING 335
SWIDTH 500 0
DWIDTH 8 0
BBX 6 11 1 0
BITMAP
48
30
00
78
FC
CC
CC
CC
CC
FC
78
ENDCHAR
STARTCHAR Ohungarumlaut
ENCODING 336
SWIDTH 687 0
DWIDTH 11 0
BBX 8 12 2 0
BITMAP
14
28
7E
FF
C3
C3
C3
C3
C3
C3
FF
7E
ENDCHAR
STARTCHAR ohungarumlaut
ENCODING 337
SWIDTH 500 0
DWIDTH 8 0
BBX 6 11 1 0
BITMAP
50
50
00
78
FC
CC
CC
CC
CC
FC
78
ENDCHAR
STARTCHAR OE
ENCODING 338
SWIDTH 937 0
DWIDTH 15 0
BBX 14 11 0 0
BITMAP
7EFC
FFFC
C3C0
C3C0
C3FC
C3FC
C3C0
C3C0
C3C0
FFFC
7EFC
ENDCHAR
STARTCHAR oe
ENCODING 339
SWIDTH 812 0
DWIDTH 13 0
BBX 11 8 1 0
BITMAP
79C0
FFE0
CE60
CFE0
CE00
CE60
FFE0
7BC0
ENDCHAR
STARTCHAR Racute
ENCODING 340
SWIDTH 625 0
DWIDTH 10 0
BBX 8 12 1 0
BITMAP
08
10
FE
FF
C3
C3
FF
FE
C3
C3
C3
C3
ENDCHAR
STARTCHAR racute
ENCODING 341
SWIDTH 500 0
DWIDTH 8 0
BBX 6 11 1 0
BITMAP
10
20
00
F8
FC
CC
C0
C0
C0
C0
C0
ENDCHAR
STARTCHAR Rcommaaccent
ENCODING 342
SWIDTH 625 0
DWIDTH 10 0
BBX 8 14 1 -4
BITMAP
FE
FF
C3
C3
FF
FE
C3
C3
C3
C3
0C
0C
04
08
ENDCHAR
STARTCHAR rcommaaccent
ENCODING 343
SWIDTH 500 0
DWIDTH 8 0
BBX 6 12 1 -4
BITMAP
F8
FC
CC
C0
C0
C0
C0
C0
30
30
10
20
ENDCHAR
STARTCHAR Rcaron
ENCODING 344
SWIDTH 625 0
DWIDTH 10 0
BBX 8 12 1 0
BITMAP
24
18
FE
FF
C3
C3
FF
FE
C3
C3
C3
C3
ENDCHAR
STARTCHAR rcaron
ENCODING 345
SWIDTH 500 0
DWIDTH 8 0
BBX 6 11 1 0
BITMAP
90
60
00
F8
FC
CC
C0
C0
C0
C0
C0
ENDCHAR
STARTCHAR Sacute
ENCODING 346
SWIDTH 625 0
DWIDTH 10 0
BBX 8 12 1 0
BITMAP
08
10
7E
FF
C3
C0
FE
7F
03
C3
FF
7E
ENDCHAR
STARTCHAR sacute
ENCODING 347
SWIDTH 500 0
DWIDTH 8 0
BBX 6 11 1 0
BITMAP
10
20
00
7C
FC
C0
F8
7C
0C
FC
F8
ENDCHAR
STARTCHAR Scircumflex
ENCODING 348
SWIDTH 625 0
DWIDTH 10 0
BBX 8 12 1 0
BITMAP
18
24
7E
FF
C3
C0
FE
7F
03
C3
FF
7E
ENDCHAR
STARTCHAR scircumflex
ENCODING 349
SWIDTH 500 0
DWIDTH 8 0
BBX 6 11 1 0
BITMAP
30
48
00
7C
FC
C0
F8
7C
0C
FC
F8
ENDCHAR
STARTCHAR Scedilla
ENCODING 350
SWIDTH 625 0
DWIDTH 10 0
BBX 8 14 1 -4
BITMAP
7E
FF
C3
C0
FE
7F
03
C3
FF
7E
1C
0C
1C
18
ENDCHAR
STARTCHAR scedilla
ENCODING 351
SWIDTH 500 0
DWIDTH 8 0
BBX 6 12 1 -4
BITMAP
7C
FC
C0
F8
7C
0C
FC
F8
38
18
38
30
ENDCHAR
STARTCHAR Scaron
ENCODING 352
SWIDTH 625 0
DWIDTH 10 0
BBX 8 12 1 0
BITMAP
24
18
7E
FF
C3
C0
FE
7F
03
C3
FF
7E
ENDCHAR
STARTCHAR scaron
ENCODING 353
SWIDTH 500 0
DWIDTH 8 0
BBX 6 11 1 0
BITMAP
48
30
00
7C
FC
C0
F8
7C
0C
FC
F8
ENDCHAR
STARTCHAR Tcommaaccent
ENCODING 354
SWIDTH 625 0
DWIDTH 10 0
BBX 8 15 1 -4
BITMAP
FF
FF
18
18
18
18
18
18
18
18
18
38
18
38
30
ENDCHAR
STARTCHAR tcommaaccent
ENCODING 355
SWIDTH 312 0
DWIDTH 5 0
BBX 4 15 0 -4
BITMAP
60
60
60
F0
F0
60
60
60
60
70
30
70
30
70
60
ENDCHAR
STARTCHAR Tcaron
ENCODING 356
SWIDTH 625 0
DWIDTH 10 0
BBX 8 12 1 0
BITMAP
24
18
FF
FF
18
18
18
18
18
18
18
18
ENDCHAR
STARTCHAR tcaron
ENCODING 357
SWIDTH 437 0
DWIDTH 7 0
BBX 6 12 0 0
BITMAP
0C
6C
64
68
F0
F0
60
60
60
60
70
30
ENDCHAR
STARTCHAR Tbar
ENCODING 358
SWIDTH 625 0
DWIDTH 10 0
BBX 8 11 1 0
BITMAP
FF
FF
18
18
18
7E
7E
18
18
18
18
ENDCHAR
STARTCHAR tbar
ENCODING 359
SWIDTH 312 0
DWIDTH 5 0
BBX 4 11 0 0
BITMAP
60
60
60
F0
F0
60
F0
F0
60
70
30
ENDCHAR
STARTCHAR Utilde
ENCODING 360
SWIDTH 687 0
DWIDTH 11 0
BBX 8 12 2 0
BITMAP
14
28
C3
C3
C3
C3
C3
C3
C3
C3
FF
7E
ENDCHAR
STARTCHAR utilde
ENCODING 361
SWIDTH 500 0
DWIDTH 8 0
BBX 6 11 1 0
BITMAP
28
50
00
CC
CC
CC
CC
CC
CC
FC
7C
ENDCHAR
STARTCHAR Umacron
ENCODING 362
SWIDTH 687 0
DWIDTH 11 0
BBX 8 12 2 0
BITMAP
3C
00
C3
C3
C3
C3
C3
C3
C3
C3
FF
7E
ENDCHAR
STARTCHAR umacron
ENCODING 363
SWIDTH 500 0
DWIDTH 8 0
BBX 6 10 1 0
BITMAP
78
00
CC
CC
CC
CC
CC
CC
FC
7C
ENDCHAR
STARTCHAR Ubreve
ENCODING 364
SWIDTH 687 0
DWIDTH 11 0
BBX 8 12 2 0
BITMAP
24
18
C3
C3
C3
C3
C3
C3
C3
C3
FF
7E
ENDCHAR
STARTCHAR ubreve
ENCODING 365
SWIDTH 500 0
DWIDTH 8 0
BBX 6 11 1 0
BITMAP
48
30
00
CC
CC
CC
CC
CC
CC
FC
7C
ENDCHAR
STARTCHAR Uring
ENCODING 366
SWIDTH 687 0
DWIDTH 11 0
BBX 8 12 2 0
BITMAP
18
24
DB
C3
C3
C3
C3
C3
C3
C3
FF
7E
ENDCHAR
STARTCHAR uring
ENCODING 367
SWIDTH 500 0
DWIDTH 8 0
BBX 6 11 1 0
BITMAP
30
48
30
CC
CC
CC
CC
CC
CC
FC
7C
ENDCHAR
STARTCHAR Uhungarumlaut
ENCODING 368
SWIDTH 687 0
DWIDTH 11 0
BBX 8 12 2 0
BITMAP
14
28
C3
C3
C3
C3
C3
C3
C3
C3
FF
7E
ENDCHAR
STARTCHAR uhungarumlaut
ENCODING 369
SWIDTH 500 0
DWIDTH 8 0
BBX 6 11 1 0
BITMAP
50
50
00
CC
CC
CC
CC
CC
CC
FC
7C
ENDCHAR
STARTCHAR Uogonek
ENCODING 370
SWIDTH 687 0
DWIDTH 11 0
BBX 8 15 2 -4
BITMAP
C3
C3
C3
C3
C3
C3
C3
C3
C3
FF
7E
1C
0C
1C
18
ENDCHAR
STARTCHAR uogonek
ENCODING 371
SWIDTH 500 0
DWIDTH 8 0
BBX 6 12 1 -4
BITMAP
CC
CC
CC
CC
CC
CC
FC
7C
1C
0C
1C
18
ENDCHAR
STARTCHAR Wcircumflex
ENCODING 372
SWIDTH 750 0
DWIDTH 12 0
BBX 10 12 1 0
BITMAP
0C00
1200
C0C0
C0C0
C0C0
CCC0
CCC0
CCC0
CCC0
FFC0
7F80
3300
ENDCHAR
STARTCHAR wcircumflex
ENCODING 373
SWIDTH 750 0
DWIDTH 12 0
BBX 10 11 1 0
BITMAP
0C00
1200
0000
CCC0
CCC0
CCC0
CCC0
CCC0
CCC0
FFC0
7FC0
ENDCHAR
STARTCHAR Ycircumflex
ENCODING 374
SWIDTH 625 0
DWIDTH 10 0
BBX 8 12 1 0
BITMAP
18
24
C3
E7
66
7E
3C
18
18
18
18
18
ENDCHAR
STARTCHAR ycircumflex
ENCODING 375
SWIDTH 500 0
DWIDTH 8 0
BBX 6 14 1 -3
BITMAP
30
48
00
CC
CC
CC
CC
CC
CC
FC
78
38
F0
E0
ENDCHAR
STARTCHAR Ydieresis
ENCODING 376
SWIDTH 625 0
DWIDTH 10 0
BBX 8 12 1 0
BITMAP
24
00
C3
E7
66
7E
3C
18
18
18
18
18
ENDCHAR
STARTCHAR Zacute
ENCODING 377
SWIDTH 687 0
DWIDTH 11 0
BBX 10 12 0 0
BITMAP
0400
0800
FFC0
FFC0
0380
0700
0E00
1C00
3800
7000
FFC0
FFC0
ENDCHAR
STARTCHAR zacute
ENCODING 378
SWIDTH 500 0
DWIDTH 8 0
BBX 6 11 1 0
BITMAP
10
20
00
FC
FC
18
30
30
60
FC
FC
ENDCHAR
STARTCHAR Zdotaccent
ENCODING 379
SWIDTH 687 0
DWIDTH 11 0
BBX 10 12 0 0
BITMAP
0800
0400
FFC0
FFC0
0380
0700
0E00
1C00
3800
7000
FFC0
FFC0
ENDCHAR
STARTCHAR zdotaccent
ENCODING 380
SWIDTH 500 0
DWIDTH 8 0
BBX 6 11 1 0
BITMAP
20
10
00
FC
FC
18
30
30
60
FC
FC
ENDCHAR
STARTCHAR Zcaron
ENCODING 381
SWIDTH 687 0
DWIDTH 11 0
BBX 10 12 0 0
BITMAP
1200
0C00
FFC0
FFC0
0380
0700
0E00
1C00
3800
7000
FFC0
FFC0
ENDCHAR
STARTCHAR zcaron
ENCODING 382
SWIDTH 500 0
DWIDTH 8 0
BBX 6 11 1 0
BITMAP
48
30
00
FC
FC
18
30
30
60
FC
FC
ENDCHAR
STARTCHAR Euro
ENCODING 8364
SWIDTH 625 0
DWIDTH 10 0
BBX 8 11 1 0
BITMAP
1E
3F
73
FC
FC
60
FC
FC
73
3F
1E
ENDCHAR
STARTCHAR uni3000
ENCODING 12288
SWIDTH 1000 0
DWIDTH 16 0
BBX 1 1 0 0
BITMAP
00
ENDCHAR
STARTCHAR .notdef
ENCODING -1
SWIDTH 365 0
DWIDTH 6 0
BBX 5 11 1 0
BITMAP
F8
88
88
88
88
88
88
88
88
88
F8
ENDCHAR
STARTCHAR .null
ENCODING -1
SWIDTH 0 0
DWIDTH 0 0
BBX 1 1 0 0
BITMAP
00
ENDCHAR
STARTCHAR nonmarkingreturn
ENCODING -1
SWIDTH 333 0
DWIDTH 5 0
BBX 1 1 0 0
BITMAP
00
ENDCHAR
ENDFONT
